<svg height="512pt" viewBox="0 -16 512.00552 512" width="512pt" xmlns="http://www.w3.org/2000/svg"><path d="m496 448.007812v24h-488v-24zm0 0" fill="#fff"/><path d="m480 424.007812v24h-456v-24zm0 0" fill="#fff"/><path d="m464 400.007812v24h-424v-24zm0 0" fill="#fff"/><path d="m440 376.007812v24h-56v-24zm0 0" fill="#d7e9ff"/><path d="m336 376.007812v24h-56v-24zm0 0" fill="#d7e9ff"/><path d="m392 232.007812v144h-8v24h-48v-24h-8v-144c8.800781 0 16-7.203124 16-16 0-8.800781-7.199219-16-16-16h64c-8.800781 0-16 7.199219-16 16 0 8.796876 7.199219 16 16 16zm0 0" fill="#94c1ff"/><path d="m288 232.007812v144h-8v24h-48v-24h-8v-144c8.800781 0 16-7.203124 16-16 0-8.800781-7.199219-16-16-16h64c-8.800781 0-16 7.199219-16 16 0 8.796876 7.199219 16 16 16zm0 0" fill="#94c1ff"/><path d="m184 232.007812v144h-8v24h-48v-24h-8v-144c8.800781 0 16-7.203124 16-16 0-8.800781-7.199219-16-16-16h64c-8.800781 0-16 7.199219-16 16 0 8.796876 7.199219 16 16 16zm0 0" fill="#94c1ff"/><path d="m80 232.007812h40v144h-40zm0 0" fill="#d7e9ff"/><path d="m128 376.007812v24h-56v-24zm0 0" fill="#d7e9ff"/><path d="m232 376.007812v24h-56v-24zm0 0" fill="#d7e9ff"/><path d="m184 232.007812h40v144h-40zm0 0" fill="#d7e9ff"/><path d="m288 232.007812h40v144h-40zm0 0" fill="#d7e9ff"/><path d="m504 152.007812-8 24h-480l-8-24zm0 0" fill="#fff"/><path d="m504 152.007812h-496l248-144zm-216-64c0-17.679687-14.320312-32-32-32s-32 14.320313-32 32c0 17.679688 14.320312 32 32 32s32-14.320312 32-32zm0 0" fill="#fff"/><path d="m448 176.007812v24h-384v-24zm0 0" fill="#fff"/><path d="m432 200.007812c8.800781 0 16 7.199219 16 16 0 8.796876-7.199219 16-16 16h-40c-8.800781 0-16-7.203124-16-16 0-8.800781 7.199219-16 16-16zm0 0" fill="#d7e9ff"/><path d="m392 232.007812h40v144h-40zm0 0" fill="#d7e9ff"/><path d="m328 200.007812c8.800781 0 16 7.199219 16 16 0 8.796876-7.199219 16-16 16h-40c-8.800781 0-16-7.203124-16-16 0-8.800781 7.199219-16 16-16zm0 0" fill="#d7e9ff"/><path d="m288 88.007812c0 17.671876-14.328125 32-32 32s-32-14.328124-32-32c0-17.675781 14.328125-32 32-32s32 14.324219 32 32zm0 0" fill="#d7e9ff"/><path d="m224 200.007812c8.800781 0 16 7.199219 16 16 0 8.796876-7.199219 16-16 16h-40c-8.800781 0-16-7.203124-16-16 0-8.800781 7.199219-16 16-16zm0 0" fill="#d7e9ff"/><path d="m120 200.007812c8.800781 0 16 7.199219 16 16 0 8.796876-7.199219 16-16 16h-40c-8.800781 0-16-7.203124-16-16 0-8.800781 7.199219-16 16-16zm0 0" fill="#d7e9ff"/><g fill="#116fff"><path d="m496 480.007812h-488c-4.425781 0-8-3.578124-8-8v-24c0-4.425781 3.574219-8 8-8h488c4.425781 0 8 3.574219 8 8v24c0 4.421876-3.574219 8-8 8zm-480-16h472v-8h-472zm0 0"/><path d="m480 456.007812c-4.425781 0-8-3.578124-8-8v-16h-440v16c0 4.421876-3.574219 8-8 8s-8-3.578124-8-8v-24c0-4.425781 3.574219-8 8-8h456c4.425781 0 8 3.574219 8 8v24c0 4.421876-3.574219 8-8 8zm0 0"/><path d="m464 432.007812c-4.425781 0-8-3.578124-8-8v-16h-408v16c0 4.421876-3.574219 8-8 8s-8-3.578124-8-8v-24c0-4.425781 3.574219-8 8-8h424c4.425781 0 8 3.574219 8 8v24c0 4.421876-3.574219 8-8 8zm0 0"/><path d="m448 208.007812h-384c-4.425781 0-8-3.578124-8-8 0-4.425781 3.574219-8 8-8h384c4.425781 0 8 3.574219 8 8 0 4.421876-3.574219 8-8 8zm0 0"/><path d="m128 384.007812h-56c-4.425781 0-8-3.578124-8-8 0-4.425781 3.574219-8 8-8h56c4.425781 0 8 3.574219 8 8 0 4.421876-3.574219 8-8 8zm0 0"/><path d="m128 408.007812c-4.425781 0-8-3.578124-8-8v-24c0-4.425781 3.574219-8 8-8s8 3.574219 8 8v24c0 4.421876-3.574219 8-8 8zm0 0"/><path d="m72 408.007812c-4.425781 0-8-3.578124-8-8v-24c0-4.425781 3.574219-8 8-8s8 3.574219 8 8v24c0 4.421876-3.574219 8-8 8zm0 0"/><path d="m232 384.007812h-56c-4.425781 0-8-3.578124-8-8 0-4.425781 3.574219-8 8-8h56c4.425781 0 8 3.574219 8 8 0 4.421876-3.574219 8-8 8zm0 0"/><path d="m232 408.007812c-4.425781 0-8-3.578124-8-8v-24c0-4.425781 3.574219-8 8-8s8 3.574219 8 8v24c0 4.421876-3.574219 8-8 8zm0 0"/><path d="m176 408.007812c-4.425781 0-8-3.578124-8-8v-24c0-4.425781 3.574219-8 8-8s8 3.574219 8 8v24c0 4.421876-3.574219 8-8 8zm0 0"/><path d="m336 384.007812h-56c-4.425781 0-8-3.578124-8-8 0-4.425781 3.574219-8 8-8h56c4.425781 0 8 3.574219 8 8 0 4.421876-3.574219 8-8 8zm0 0"/><path d="m336 408.007812c-4.425781 0-8-3.578124-8-8v-24c0-4.425781 3.574219-8 8-8s8 3.574219 8 8v24c0 4.421876-3.574219 8-8 8zm0 0"/><path d="m280 408.007812c-4.425781 0-8-3.578124-8-8v-24c0-4.425781 3.574219-8 8-8s8 3.574219 8 8v24c0 4.421876-3.574219 8-8 8zm0 0"/><path d="m440 384.007812h-56c-4.425781 0-8-3.578124-8-8 0-4.425781 3.574219-8 8-8h56c4.425781 0 8 3.574219 8 8 0 4.421876-3.574219 8-8 8zm0 0"/><path d="m440 408.007812c-4.425781 0-8-3.578124-8-8v-24c0-4.425781 3.574219-8 8-8s8 3.574219 8 8v24c0 4.421876-3.574219 8-8 8zm0 0"/><path d="m384 408.007812c-4.425781 0-8-3.578124-8-8v-24c0-4.425781 3.574219-8 8-8s8 3.574219 8 8v24c0 4.421876-3.574219 8-8 8zm0 0"/><path d="m80 384.007812c-4.425781 0-8-3.578124-8-8v-144c0-4.425781 3.574219-8 8-8s8 3.574219 8 8v144c0 4.421876-3.574219 8-8 8zm0 0"/><path d="m120 384.007812c-4.425781 0-8-3.578124-8-8v-144c0-4.425781 3.574219-8 8-8s8 3.574219 8 8v144c0 4.421876-3.574219 8-8 8zm0 0"/><path d="m80 240.007812c-13.230469 0-24-10.769531-24-24 0-13.234374 10.769531-24 24-24 4.425781 0 8 3.574219 8 8 0 4.421876-3.574219 8-8 8-4.414062 0-8 3.582032-8 8 0 4.414063 3.585938 8 8 8 4.425781 0 8 3.574219 8 8 0 4.421876-3.574219 8-8 8zm0 0"/><path d="m120 240.007812c-4.425781 0-8-3.578124-8-8 0-4.425781 3.574219-8 8-8 4.417969 0 8-3.585937 8-8 0-4.417968-3.582031-8-8-8-4.425781 0-8-3.578124-8-8 0-4.425781 3.574219-8 8-8 13.230469 0 24 10.765626 24 24 0 13.230469-10.769531 24-24 24zm0 0"/><path d="m120 240.007812h-40c-4.425781 0-8-3.578124-8-8 0-4.425781 3.574219-8 8-8h40c4.425781 0 8 3.574219 8 8 0 4.421876-3.574219 8-8 8zm0 0"/><path d="m184 384.007812c-4.425781 0-8-3.578124-8-8v-144c0-4.425781 3.574219-8 8-8s8 3.574219 8 8v144c0 4.421876-3.574219 8-8 8zm0 0"/><path d="m224 384.007812c-4.425781 0-8-3.578124-8-8v-144c0-4.425781 3.574219-8 8-8s8 3.574219 8 8v144c0 4.421876-3.574219 8-8 8zm0 0"/><path d="m184 240.007812c-13.230469 0-24-10.769531-24-24 0-13.234374 10.769531-24 24-24 4.425781 0 8 3.574219 8 8 0 4.421876-3.574219 8-8 8-4.414062 0-8 3.582032-8 8 0 4.414063 3.585938 8 8 8 4.425781 0 8 3.574219 8 8 0 4.421876-3.574219 8-8 8zm0 0"/><path d="m224 240.007812c-4.425781 0-8-3.578124-8-8 0-4.425781 3.574219-8 8-8 4.417969 0 8-3.585937 8-8 0-4.417968-3.582031-8-8-8-4.425781 0-8-3.578124-8-8 0-4.425781 3.574219-8 8-8 13.230469 0 24 10.765626 24 24 0 13.230469-10.769531 24-24 24zm0 0"/><path d="m224 240.007812h-40c-4.425781 0-8-3.578124-8-8 0-4.425781 3.574219-8 8-8h40c4.425781 0 8 3.574219 8 8 0 4.421876-3.574219 8-8 8zm0 0"/><path d="m288 384.007812c-4.425781 0-8-3.578124-8-8v-144c0-4.425781 3.574219-8 8-8s8 3.574219 8 8v144c0 4.421876-3.574219 8-8 8zm0 0"/><path d="m328 384.007812c-4.425781 0-8-3.578124-8-8v-144c0-4.425781 3.574219-8 8-8s8 3.574219 8 8v144c0 4.421876-3.574219 8-8 8zm0 0"/><path d="m288 240.007812c-13.230469 0-24-10.769531-24-24 0-13.234374 10.769531-24 24-24 4.425781 0 8 3.574219 8 8 0 4.421876-3.574219 8-8 8-4.414062 0-8 3.582032-8 8 0 4.414063 3.585938 8 8 8 4.425781 0 8 3.574219 8 8 0 4.421876-3.574219 8-8 8zm0 0"/><path d="m328 240.007812c-4.425781 0-8-3.578124-8-8 0-4.425781 3.574219-8 8-8 4.417969 0 8-3.585937 8-8 0-4.417968-3.582031-8-8-8-4.425781 0-8-3.578124-8-8 0-4.425781 3.574219-8 8-8 13.230469 0 24 10.765626 24 24 0 13.230469-10.769531 24-24 24zm0 0"/><path d="m328 240.007812h-40c-4.425781 0-8-3.578124-8-8 0-4.425781 3.574219-8 8-8h40c4.425781 0 8 3.574219 8 8 0 4.421876-3.574219 8-8 8zm0 0"/><path d="m392 384.007812c-4.425781 0-8-3.578124-8-8v-144c0-4.425781 3.574219-8 8-8s8 3.574219 8 8v144c0 4.421876-3.574219 8-8 8zm0 0"/><path d="m432 384.007812c-4.425781 0-8-3.578124-8-8v-144c0-4.425781 3.574219-8 8-8s8 3.574219 8 8v144c0 4.421876-3.574219 8-8 8zm0 0"/><path d="m392 240.007812c-13.230469 0-24-10.769531-24-24 0-13.234374 10.769531-24 24-24 4.425781 0 8 3.574219 8 8 0 4.421876-3.574219 8-8 8-4.414062 0-8 3.582032-8 8 0 4.414063 3.585938 8 8 8 4.425781 0 8 3.574219 8 8 0 4.421876-3.574219 8-8 8zm0 0"/><path d="m432 240.007812c-4.425781 0-8-3.578124-8-8 0-4.425781 3.574219-8 8-8 4.417969 0 8-3.585937 8-8 0-4.417968-3.582031-8-8-8-4.425781 0-8-3.578124-8-8 0-4.425781 3.574219-8 8-8 13.230469 0 24 10.765626 24 24 0 13.230469-10.769531 24-24 24zm0 0"/><path d="m432 240.007812h-40c-4.425781 0-8-3.578124-8-8 0-4.425781 3.574219-8 8-8h40c4.425781 0 8 3.574219 8 8 0 4.421876-3.574219 8-8 8zm0 0"/><path d="m64 208.007812c-4.425781 0-8-3.578124-8-8v-24c0-4.425781 3.574219-8 8-8s8 3.574219 8 8v24c0 4.421876-3.574219 8-8 8zm0 0"/><path d="m448 208.007812c-4.425781 0-8-3.578124-8-8v-24c0-4.425781 3.574219-8 8-8s8 3.574219 8 8v24c0 4.421876-3.574219 8-8 8zm0 0"/><path d="m496 184.007812h-480c-4.425781 0-8-3.578124-8-8 0-4.425781 3.574219-8 8-8h480c4.425781 0 8 3.574219 8 8 0 4.421876-3.574219 8-8 8zm0 0"/><path d="m496 184.007812c-.832031 0-1.6875-.136718-2.527344-.417968-4.183594-1.390625-6.457031-5.917969-5.054687-10.121094l8-24c1.398437-4.183594 5.886719-6.46875 10.117187-5.054688 4.183594 1.390626 6.457032 5.921876 5.058594 10.121094l-8 24c-1.121094 3.351563-4.242188 5.472656-7.59375 5.472656zm0 0"/><path d="m16 184.007812c-3.351562 0-6.472656-2.121093-7.582031-5.472656l-8-24c-1.402344-4.191406.863281-8.730468 5.054687-10.121094 4.214844-1.414062 8.726563.863282 10.121094 5.054688l8 24c1.398438 4.195312-.867188 8.730469-5.058594 10.121094-.847656.28125-1.703125.417968-2.535156.417968zm0 0"/><path d="m8.007812 160.007812c-2.757812 0-5.449218-1.433593-6.925781-3.984374-2.21875-3.824219-.914062-8.722657 2.902344-10.9375l248-144c3.839844-2.191407 8.726563-.902344 10.9375 2.90625 2.214844 3.820312.910156 8.71875-2.90625 10.933593l-248 144c-1.261719.730469-2.648437 1.082031-4.007813 1.082031zm0 0"/><path d="m503.992188 160.007812c-1.367188 0-2.742188-.34375-4.007813-1.082031l-248-144c-3.824219-2.214843-5.128906-7.121093-2.902344-10.933593 2.214844-3.832032 7.117188-5.121094 10.933594-2.90625l248 144c3.824219 2.214843 5.128906 7.121093 2.90625 10.9375-1.480469 2.550781-4.167969 3.984374-6.929687 3.984374zm0 0"/><path d="m504 160.007812h-496c-4.425781 0-8-3.578124-8-8 0-4.425781 3.574219-8 8-8h496c4.425781 0 8 3.574219 8 8 0 4.421876-3.574219 8-8 8zm0 0"/><path d="m256 128.007812c-22.054688 0-40-17.945312-40-40 0-22.058593 17.945312-40 40-40s40 17.941407 40 40c0 22.054688-17.945312 40-40 40zm0-64c-13.230469 0-24 10.765626-24 24 0 13.230469 10.769531 24 24 24s24-10.769531 24-24c0-13.234374-10.769531-24-24-24zm0 0"/><path d="m256 104.007812c-4.425781 0-8-3.578124-8-8v-16c0-4.425781 3.574219-8 8-8s8 3.574219 8 8v16c0 4.421876-3.574219 8-8 8zm0 0"/></g></svg>